<svg width="822" height="799" viewBox="0 0 822 799" fill="none" xmlns="http://www.w3.org/2000/svg">
<path d="M268.699 286.173L204.429 278.469C201.676 278.139 199.713 275.637 200.042 272.88L207.733 208.499C208.061 205.742 210.56 203.776 213.312 204.105L277.583 211.809C280.336 212.14 282.298 214.641 281.97 217.398L274.279 281.778C273.95 284.536 271.452 286.504 268.699 286.173Z" stroke="#7B95A3" stroke-width="1.0708" stroke-miterlimit="10"/>
<path opacity="0.19" d="M207.521 268.777L214.035 214.257C214.234 212.589 215.745 211.398 217.409 211.598L271.837 218.124C273.502 218.324 274.691 219.837 274.491 221.504L267.977 276.025C267.777 277.692 266.267 278.883 264.6 278.683L210.173 272.157C208.51 271.957 207.323 270.444 207.521 268.777Z" fill="#7B95A3"/>
<path d="M242.432 250.093L235.743 255.362C234.514 256.33 232.733 256.118 231.764 254.884C230.798 253.652 229.015 253.438 227.786 254.406L217.883 262.206C215.899 263.769 216.791 266.954 219.298 267.255L220.462 267.395L243.779 270.189L256.892 271.761C259.399 272.062 261.015 269.177 259.455 267.19L246.409 250.569C245.443 249.338 243.662 249.125 242.432 250.093Z" stroke="#7B95A3" stroke-width="1.0708" stroke-miterlimit="10"/>
<path d="M230.422 238.836C230.095 241.577 227.611 243.534 224.872 243.205C222.136 242.876 220.181 240.388 220.51 237.646C220.837 234.905 223.323 232.947 226.06 233.277C228.796 233.604 230.75 236.094 230.422 238.836Z" stroke="#7B95A3" stroke-width="1.0708" stroke-miterlimit="10"/>
<path d="M255.708 332.257C256.678 336.731 257.314 341.224 257.834 345.725C258.374 350.224 258.717 354.735 259.021 359.25C259.263 363.766 259.461 368.286 259.464 372.819C259.487 377.349 259.392 381.887 258.961 386.445C257.987 381.97 257.349 377.477 256.83 372.976C256.291 368.477 255.948 363.966 255.648 359.451C255.411 354.933 255.212 350.413 255.21 345.882C255.187 341.352 255.281 336.814 255.708 332.257Z" fill="white"/>
<path d="M284.386 360.91C279.837 361.349 275.309 361.455 270.784 361.444C266.259 361.455 261.747 361.266 257.236 361.041C252.729 360.751 248.225 360.42 243.731 359.89C239.236 359.382 234.748 358.754 230.28 357.791C234.83 357.347 239.36 357.239 243.883 357.252C248.407 357.243 252.92 357.43 257.43 357.66C261.938 357.954 266.441 358.287 270.936 358.816C275.431 359.324 279.918 359.951 284.386 360.91Z" fill="white"/>
<path d="M273.662 346.567C271.373 349.25 268.876 351.67 266.307 353.997C263.738 356.322 261.097 358.558 258.374 360.685C255.659 362.823 252.855 364.848 249.982 366.784C247.107 368.718 244.16 370.559 241.005 372.134C243.293 369.447 245.788 367.026 248.357 364.701C250.927 362.377 253.565 360.14 256.293 358.016C259.012 355.884 261.814 353.857 264.689 351.921C267.563 349.987 270.51 348.146 273.662 346.567Z" fill="white"/>
<path d="M244.088 343.92C246.826 346.035 249.31 348.367 251.708 350.776C254.104 353.186 256.411 355.673 258.616 358.246C260.83 360.812 262.936 363.472 264.959 366.203C266.978 368.938 268.908 371.748 270.581 374.78C267.839 372.668 265.353 370.336 262.957 367.927C260.563 365.515 258.254 363.032 256.053 360.453C253.842 357.883 251.734 355.225 249.715 352.493C247.696 349.76 245.766 346.95 244.088 343.92Z" fill="white"/>
<path d="M485.527 111.399C486.497 115.873 487.133 120.367 487.653 124.867C488.193 129.366 488.536 133.877 488.84 138.392C489.082 142.91 489.28 147.429 489.284 151.961C489.308 156.492 489.211 161.03 488.78 165.587C487.807 161.113 487.169 156.619 486.649 152.119C486.11 147.62 485.768 143.109 485.467 138.594C485.231 134.076 485.031 129.555 485.029 125.025C485.004 120.494 485.1 115.956 485.527 111.399Z" fill="white"/>
<path d="M514.205 140.052C509.655 140.491 505.127 140.597 500.604 140.587C496.079 140.597 491.567 140.408 487.056 140.181C482.549 139.891 478.046 139.56 473.551 139.031C469.056 138.523 464.569 137.895 460.1 136.932C464.65 136.488 469.18 136.38 473.703 136.392C478.228 136.383 482.74 136.571 487.251 136.803C491.758 137.097 496.261 137.427 500.754 137.958C505.249 138.466 509.737 139.093 514.205 140.052Z" fill="white"/>
<path d="M503.48 125.71C501.191 128.393 498.694 130.812 496.125 133.139C493.556 135.465 490.915 137.7 488.192 139.827C485.477 141.965 482.673 143.99 479.8 145.926C476.925 147.862 473.978 149.701 470.823 151.276C473.111 148.59 475.606 146.169 478.175 143.843C480.745 141.519 483.383 139.282 486.111 137.159C488.83 135.026 491.632 132.999 494.507 131.063C497.381 129.129 500.328 127.288 503.48 125.71Z" fill="white"/>
<path d="M473.907 123.062C476.646 125.177 479.132 127.509 481.528 129.918C483.923 132.329 486.231 134.815 488.436 137.389C490.65 139.955 492.756 142.615 494.777 145.346C496.796 148.078 498.726 150.89 500.399 153.922C497.657 151.811 495.171 149.478 492.775 147.068C490.381 144.655 488.072 142.172 485.87 139.596C483.66 137.026 481.552 134.368 479.533 131.635C477.513 128.902 475.584 126.09 473.907 123.062Z" fill="white"/>
<path d="M804.693 263.645C805.823 269.048 806.33 274.488 806.693 279.938C806.989 285.39 807.136 290.852 806.656 296.353C805.521 290.949 805.012 285.509 804.656 280.06C804.362 274.607 804.216 269.145 804.693 263.645Z" fill="white"/>
<path d="M822 280.939C816.511 281.431 811.058 281.297 805.613 281.017C800.173 280.674 794.74 280.178 789.344 279.056C794.834 278.561 800.286 278.693 805.731 278.978C811.171 279.327 816.604 279.821 822 280.939Z" fill="white"/>
<path d="M815.528 272.283C812.738 275.49 809.565 278.205 806.3 280.805C802.996 283.353 799.601 285.783 795.818 287.716C798.604 284.505 801.777 281.791 805.046 279.194C808.352 276.649 811.747 274.219 815.528 272.283Z" fill="white"/>
<path d="M797.678 270.685C800.954 273.264 803.756 276.251 806.447 279.332C809.09 282.456 811.617 285.679 813.67 289.312C810.391 286.737 807.588 283.75 804.901 280.665C802.262 277.538 799.733 274.315 797.678 270.685Z" fill="white"/>
<path d="M15.3465 116.864C16.4772 122.267 16.9843 127.708 17.3465 133.155C17.6433 138.608 17.79 144.07 17.3094 149.57C16.1751 144.167 15.6663 138.727 15.3094 133.277C15.0179 127.825 14.8712 122.363 15.3465 116.864Z" fill="white"/>
<path d="M32.6557 134.159C27.1662 134.651 21.7139 134.516 16.2687 134.237C10.8269 133.893 5.39579 133.398 0 132.276C5.48943 131.78 10.9418 131.913 16.387 132.198C21.827 132.545 27.2599 133.04 32.6557 134.159Z" fill="white"/>
<path d="M26.1842 125.501C23.3944 128.708 20.2213 131.423 16.958 134.022C13.6541 136.571 10.2583 139.001 6.47559 140.934C9.26182 137.723 12.4368 135.008 15.7018 132.412C19.0075 129.867 22.4032 127.439 26.1842 125.501Z" fill="white"/>
<path d="M8.33411 123.903C11.6097 126.481 14.4119 129.469 17.1027 132.55C19.7458 135.674 22.2724 138.896 24.3236 142.53C21.0444 139.955 18.2423 136.967 15.555 133.883C12.9172 130.757 10.3889 127.534 8.33411 123.903Z" fill="white"/>
<path d="M569.931 442.319C578.175 441.429 585.714 436.236 589.228 428.065C594.417 415.995 588.855 401.996 576.804 396.798C564.754 391.6 550.779 397.171 545.59 409.243C542.078 417.414 543.491 426.47 548.512 433.082C545.873 452.77 545.873 452.77 545.873 452.77L557.466 457.771L569.931 442.319Z" stroke="#EFEEE5" stroke-miterlimit="10"/>
<path d="M557.524 457.699L545.929 452.698L544.403 456.247L555.998 461.248L557.524 457.699Z" stroke="#EFEEE5" stroke-miterlimit="10"/>
<path d="M555.999 461.248L544.404 456.247L542.878 459.796L554.473 464.797L555.999 461.248Z" stroke="#EFEEE5" stroke-miterlimit="10"/>
<path d="M542.855 459.785L541.33 463.334C539.952 466.541 541.429 470.261 544.63 471.641C547.832 473.022 551.544 471.542 552.924 468.335L554.448 464.787L542.855 459.785Z" stroke="#EFEEE5" stroke-miterlimit="10"/>
<path d="M547.396 453.331L562.892 417.28C562.38 418.471 562.551 421.699 563.39 422.062C564.316 422.462 566.689 420.329 567.199 419.138C566.687 420.329 566.489 423.448 567.68 423.961C568.869 424.474 570.995 422.188 571.507 420.996L556.01 457.047" stroke="#EFEEE5" stroke-miterlimit="10"/>
<path d="M621.925 111.721C623.682 111.721 625.107 110.294 625.107 108.534C625.107 106.773 623.682 105.346 621.925 105.346C620.167 105.346 618.743 106.773 618.743 108.534C618.743 110.294 620.167 111.721 621.925 111.721Z" fill="#FDFDFD"/>
<path d="M813.667 116.983C815.425 116.983 816.849 115.556 816.849 113.795C816.849 112.035 815.425 110.608 813.667 110.608C811.91 110.608 810.485 112.035 810.485 113.795C810.485 115.556 811.91 116.983 813.667 116.983Z" fill="#FDFDFD"/>
<path fill-rule="evenodd" clip-rule="evenodd" d="M321.216 319.261C321.216 321.022 319.792 322.448 318.034 322.448C316.276 322.448 314.852 321.022 314.852 319.261C314.852 317.5 316.276 316.074 318.034 316.074C319.792 316.074 321.216 317.5 321.216 319.261Z" fill="#FDFDFD"/>
<path fill-rule="evenodd" clip-rule="evenodd" d="M523.79 233.121C523.79 234.88 522.365 236.308 520.608 236.308C518.85 236.308 517.426 234.882 517.426 233.121C517.426 231.36 518.85 229.934 520.608 229.934C522.365 229.934 523.79 231.36 523.79 233.121Z" fill="#FDFDFD"/>
<path fill-rule="evenodd" clip-rule="evenodd" d="M16.5001 203.638C16.5001 205.397 15.0761 206.825 13.3181 206.825C11.5601 206.825 10.1361 205.399 10.1361 203.638C10.1361 201.877 11.5601 200.45 13.3181 200.45C15.0761 200.452 16.5001 201.879 16.5001 203.638Z" fill="#FDFDFD"/>
<path fill-rule="evenodd" clip-rule="evenodd" d="M671.009 343.92C671.009 345.681 669.585 347.107 667.827 347.107C666.07 347.107 664.646 345.681 664.646 343.92C664.646 342.159 666.07 340.732 667.827 340.732C669.585 340.732 671.009 342.16 671.009 343.92Z" fill="#FDFDFD"/>
<path d="M134.665 109.465L135.446 130.113L141.496 123.858L150.86 123.662L134.665 109.465Z" fill="#E40C4A"/>
<path d="M243.618 128.251C243.618 128.251 250.144 119.482 253.805 123.149C257.466 126.816 256.033 128.888 250.303 134.628C256.243 136.472 250.328 143.758 247.445 141.417C244.821 139.288 237.57 131.63 237.57 131.63C237.57 131.63 237.888 123.618 243.618 128.251Z" fill="#EFEEE5"/>
<path d="M224.384 157.853C223.552 157.853 222.78 157.593 222.137 156.95C219.008 153.816 223.575 148.273 224.105 147.652L238.496 132.663L240.028 134.136L225.678 149.078C224.706 150.223 222.149 153.956 223.639 155.444C224.766 156.593 228.724 153.901 231.123 151.503L245.991 138.438L247.392 140.036L232.572 153.053C231.657 153.975 227.586 157.853 224.384 157.853Z" fill="#EFEEE5"/>
<path d="M754.268 211.244L744.195 215.747L737.686 235.149L750.393 224.129L752.254 225.89L740.321 238.091L759.845 231.735L764.496 221.8L754.268 211.244Z" fill="#7B95A3"/>
<path d="M757.221 208.761L767.283 219.316L772.552 214.039L761.705 203.638L757.221 208.761Z" stroke="#7B95A3" stroke-width="1.4612" stroke-miterlimit="10"/>
<path d="M682.726 165.5L667.738 150.487L675.819 141.583L677.703 143.298L671.25 150.404L682.78 161.955L690.959 154.226L692.705 156.079L682.726 165.5Z" fill="#EFEEE5"/>
<path d="M674.609 140.441L693.829 158.996L712.717 140.441L694.193 121.885L674.609 140.441Z" fill="#EFEEE5"/>
<path d="M807.655 162.492H783.275V140.484H801.841L807.655 146.468V162.492ZM785.258 160.506H805.673V147.278L801 142.472H785.258V160.506Z" fill="#E40C4A"/>
<path d="M801.42 141.477H798.159V149.287H806.664V146.873L801.42 141.477Z" fill="#E40C4A"/>
<path d="M807.655 150.28H797.168V140.484H801.837L807.655 146.468V150.28ZM799.15 148.294H805.673V147.277L801 142.47H799.15V148.294Z" fill="#E40C4A"/>
<path d="M781.593 140.484H773.632V142.47H781.593V140.484Z" fill="#E40C4A"/>
<path d="M785.258 130.541H783.275V138.491H785.258V130.541Z" fill="#E40C4A"/>
<path d="M78.2245 288.065C76.7775 284.01 78.8924 279.531 82.9401 278.081C86.9878 276.632 91.456 278.75 92.903 282.806C94.3501 286.861 92.237 291.335 88.1892 292.786C84.1433 294.234 79.6733 292.119 78.2245 288.065ZM90.6716 283.605C89.6645 280.784 86.5514 279.308 83.7387 280.316C80.9224 281.325 79.4489 284.444 80.456 287.265C81.463 290.084 84.5744 291.558 87.3924 290.549C90.2069 289.541 91.6787 286.424 90.6716 283.605Z" fill="#EFEEE5"/>
<path d="M56.3274 296.906C54.8804 292.852 56.9953 288.372 61.043 286.923C65.0907 285.474 69.5589 287.592 71.0059 291.648C72.453 295.703 70.3399 300.177 66.2921 301.628C62.2444 303.078 57.7744 300.961 56.3274 296.906ZM68.7745 292.447C67.7674 289.625 64.6543 288.149 61.8398 289.158C59.0235 290.167 57.55 293.285 58.5571 296.107C59.5642 298.926 62.6755 300.4 65.4935 299.391C68.3081 298.382 69.7816 295.266 68.7745 292.447Z" fill="#EFEEE5"/>
<path d="M71.1665 255.698L66.5481 288.321L69.0605 289.725L74.9704 259.296C74.9704 259.296 75.163 255.797 71.1665 255.698Z" fill="#EFEEE5"/>
<path d="M55.1292 260.075L79.3537 282.364L78.299 285.045L54.4649 265.273C54.4649 265.273 52.1027 262.691 55.1292 260.075Z" fill="#EFEEE5"/>
<path d="M142.391 257.964L137.367 252.927L142.391 247.89L143.748 249.247L140.077 252.927L143.748 256.606L142.391 257.964Z" fill="#F3FFF9"/>
<path d="M150.695 257.964L145.67 252.927L150.695 247.89L152.052 249.247L148.381 252.927L152.052 256.606L150.695 257.964Z" fill="#F3FFF9"/>
<path d="M560.797 346.219L565.825 341.184L570.853 346.219L569.498 347.576L565.825 343.898L562.152 347.576L560.797 346.219Z" fill="#F3FFF9"/>
<path d="M560.796 354.537L565.824 349.502L570.853 354.537L569.498 355.894L565.824 352.217L562.151 355.894L560.796 354.537Z" fill="#F3FFF9"/>
<path d="M318.116 182.625C317.862 182.625 317.609 182.526 317.418 182.326C317.054 181.94 317.072 181.333 317.457 180.968L328.134 170.868C328.519 170.505 329.125 170.521 329.489 170.907C329.853 171.293 329.835 171.9 329.45 172.264L318.773 182.365C318.59 182.538 318.353 182.625 318.116 182.625Z" fill="#FCE2B0"/>
<path d="M328.496 182.922C328.242 182.922 327.989 182.823 327.798 182.623L317.715 171.928C317.351 171.542 317.369 170.935 317.754 170.571C318.139 170.211 318.745 170.224 319.109 170.61L329.192 181.305C329.556 181.69 329.538 182.297 329.153 182.662C328.97 182.835 328.733 182.922 328.496 182.922Z" fill="#FCE2B0"/>
<path d="M344.444 104.84L332.423 124.623" stroke="#304179" stroke-width="1.1939" stroke-miterlimit="10"/>
<path d="M734.123 337.635C734.123 337.635 740.283 329.285 748.619 337.635C756.955 345.985 765.289 337.635 765.289 337.635C765.289 337.635 774.027 331.947 783.409 341.346" stroke="#E40C4A" stroke-width="0.7071" stroke-miterlimit="10"/>
<path d="M629.396 350.335L637.986 369.755" stroke="#304179" stroke-miterlimit="10"/>
<path d="M377.248 268.209L357.92 294.025L385.838 311.237L405.704 285.421L377.248 268.209Z" stroke="#F3E8E8" stroke-miterlimit="10"/>
<path d="M562.904 167.024L584.993 163.231L578.682 185.356L562.904 167.024Z" stroke="#343B9C" stroke-miterlimit="10"/>
<path d="M10.1611 341.472C10.1611 341.472 1.82533 335.301 10.1611 326.951C18.4968 318.601 10.1611 310.251 10.1611 310.251C10.1611 310.251 4.48259 301.497 13.866 292.1" stroke="#343B9C" stroke-miterlimit="10"/>
<path d="M244.187 412.693L253.654 420.912" stroke="#304179" stroke-miterlimit="10"/>
<path d="M70.02 148.232L107.785 179.305L145.551 148.232" stroke="#7B95A3" stroke-width="1.0708" stroke-miterlimit="10"/>
<path d="M145.551 148.232H70.02V205H145.551V148.232Z" stroke="#7B95A3" stroke-width="1.0708" stroke-miterlimit="10"/>
<path d="M70.0198 204.999L93.9599 168.842" stroke="#7B95A3" stroke-width="1.0708" stroke-miterlimit="10"/>
<path d="M120.5 168.842L145.55 204.999" stroke="#7B95A3" stroke-width="1.0708" stroke-miterlimit="10"/>
<path d="M634.079 239.333V275.272" stroke="#EFEEE5" stroke-miterlimit="10"/>
<path d="M623.818 250.146L634.079 239.333L643.563 250.948" stroke="#EFEEE5" stroke-miterlimit="10"/>
<path d="M684.185 251.35C684.215 250.978 684.299 250.621 684.299 250.242C684.299 242.089 677.464 235.477 669.033 235.477C667.153 235.477 665.374 235.85 663.711 236.45C663.586 236.448 663.469 236.42 663.344 236.42C663.292 236.42 663.243 236.427 663.192 236.427C661.676 220.426 647.776 207.892 630.836 207.892C613.267 207.892 598.99 221.384 598.387 238.234C596.737 237.935 595.041 237.76 593.299 237.76C578.124 237.76 565.823 249.656 565.823 264.333C565.823 279.01 578.124 290.907 593.299 290.907C593.299 290.907 678.723 291.234 680.01 291.234C691.909 291.234 701.554 282.219 701.554 271.097C701.556 261.312 694.084 253.169 684.185 251.35Z" stroke="#EFEEE5" stroke-miterlimit="10"/>
<path d="M162.003 494.875C161.667 493.424 160.875 492.3 159.647 491.539C158.361 490.741 156.78 490.486 155.386 490.458V488.104H123.101V513.764C123.101 522.695 130.329 526.76 139.244 526.76C148.16 526.76 155.386 522.695 155.386 513.764V509.326C155.389 509.326 155.391 509.326 155.395 509.326C156.19 509.326 157.027 509.119 157.882 508.703C160.027 507.66 161.575 505.558 162.027 503.078C162.402 501.013 162.702 497.914 162.003 494.875ZM159.699 502.653C159.382 504.391 158.317 505.857 156.847 506.572C156.269 506.851 155.792 506.952 155.386 506.949V492.831C156.453 492.858 157.577 493.036 158.407 493.553C159.086 493.976 159.508 494.581 159.699 495.408C160.306 498.052 160.034 500.808 159.699 502.653Z" fill="#EFEEE5"/>
<path d="M135.958 393.405C130.094 389.717 124.223 386.007 118.766 381.705C113.329 377.404 108.283 372.472 104.488 366.589C100.712 360.743 98.0675 353.986 97.7671 346.918C97.4244 339.858 99.7495 332.77 103.896 327.085C108.018 321.365 113.746 316.863 120.202 314.049C126.688 311.235 133.852 310.26 140.856 310.702C147.875 311.155 154.753 312.994 161.177 315.78C167.571 318.606 173.704 322.216 178.81 327.131C181.338 329.6 183.57 332.393 185.367 335.439C187.183 338.469 188.671 341.709 189.69 345.091C191.828 351.832 192.423 358.986 191.845 366C191.506 369.507 190.881 372.983 189.951 376.381C189.006 379.781 187.72 383.059 186.257 386.25C183.284 392.614 179.404 398.522 174.927 403.891C170.476 409.289 165.45 414.174 160.14 418.685C154.849 423.237 149.031 427.085 144.375 432.083C134.902 441.903 132.755 457.87 139.075 469.978L138.034 470.664C133.11 464.571 126.156 460.46 120.273 455.046C118.781 453.71 117.423 452.216 116.152 450.648C114.979 449.009 113.822 447.315 113.128 445.395C111.571 441.638 111.366 437.348 112.433 433.458C113.433 429.534 115.432 425.982 117.721 422.729C120.041 419.48 122.72 416.521 125.486 413.678C128.232 410.824 131.018 407.978 133.175 404.656C135.352 401.387 136.656 397.368 135.958 393.405C136.721 397.352 135.479 401.431 133.342 404.76C131.223 408.142 128.465 411.048 125.769 413.946C123.05 416.83 120.44 419.812 118.197 423.062C115.983 426.313 114.085 429.837 113.182 433.645C112.216 437.427 112.486 441.48 113.988 445.048C115.446 448.655 118.057 451.674 120.972 454.283C126.781 459.552 133.817 463.596 139.009 469.88L137.969 470.567C134.637 464.304 133.471 456.994 134.366 449.979C135.202 442.942 138.41 436.199 143.248 431.035C148.068 425.84 153.912 421.966 159.105 417.464C164.342 412.986 169.287 408.151 173.646 402.831C182.354 392.278 188.916 379.539 190.105 365.842C190.685 359.039 190.125 352.105 188.082 345.596C187.109 342.329 185.685 339.208 183.95 336.292C182.231 333.357 180.103 330.681 177.681 328.298C172.791 323.556 166.799 319.992 160.556 317.211C154.285 314.47 147.578 312.658 140.759 312.198C133.963 311.736 127.001 312.603 120.725 315.266C114.46 317.928 108.859 322.248 104.818 327.752C100.753 333.23 98.4509 340.03 98.7177 346.879C98.9668 353.731 101.416 360.398 105.053 366.228C108.702 372.091 113.626 377.07 118.976 381.443C124.343 385.818 130.154 389.623 135.958 393.405Z" fill="#EFEEE5"/>
<g opacity="0.39">
<path d="M541.217 780.081C445.432 783.301 349.604 781.777 253.789 781.556C254.521 786.971 255.252 792.389 255.985 797.804C277.791 792.396 302.101 794.684 324.355 794.919C349.157 795.183 373.96 795.381 398.762 795.541C446.248 795.845 493.732 796.095 541.217 796.626C551.849 796.746 551.853 780.232 541.217 780.081C491.701 779.384 442.179 779.287 392.665 778.589C382.032 778.439 382.029 794.985 392.665 795.134C442.181 795.831 491.702 795.928 541.217 796.626C541.217 791.111 541.217 785.596 541.217 780.081C492.801 779.54 444.386 779.294 395.969 778.979C370.958 778.816 345.949 778.611 320.938 778.338C298.207 778.092 273.871 776.324 251.593 781.849C242.492 784.106 244.515 798.077 253.789 798.098C349.604 798.321 445.432 799.843 541.217 796.624C551.818 796.27 551.865 779.724 541.217 780.081Z" fill="#A9BCC6"/>
</g>
<path d="M338.742 619.119L338.313 623.852L323.454 787.453H327.735L353.412 624.66L338.742 619.119Z" fill="#343B9C"/>
<path d="M389.233 624.91L405.129 790.297H410.632L403.908 624.91H389.233Z" fill="#343B9C"/>
<path d="M435.473 620.342C435.399 620.34 485.956 788.55 485.956 788.55L490.824 789.01L450.935 619.119L435.473 620.342Z" fill="#343B9C"/>
<path d="M346.918 648.137C371.846 650.491 402.362 652.276 429.751 650.797C457.4 649.303 478.076 624.765 475.098 597.191L469.783 547.992C466.387 505.559 430.493 473.176 388.011 474.213C346.445 475.227 312.57 507.936 310.031 549.507L303.616 592.761C299.538 620.243 319.302 645.53 346.918 648.137Z" fill="#F3F3F1"/>
<path d="M321.881 565.282L320.335 595.198L378.094 624.91L463.149 606.886L451.988 567.545L321.881 565.282Z" fill="#9A9A9A"/>
<path d="M378.976 614.081L328.568 635.191L336.276 654.903L393.457 636.308L378.976 614.081Z" fill="#FFA49C"/>
<path d="M332.181 631.572L341.474 654.903L314.105 664.26C308.202 666.277 295.403 666.486 293.419 660.563C291.573 655.055 300.594 645.659 305.892 643.297L332.181 631.572Z" fill="#EFEEE5"/>
<path d="M303.928 644.417C305.803 647.601 307.503 650.854 308.978 654.238C309.718 655.926 310.388 657.65 310.928 659.427C311.457 661.202 311.925 663.026 311.932 664.955C311.932 665.226 311.715 665.446 311.446 665.446C311.178 665.447 310.96 665.223 310.957 664.955C310.934 663.21 310.471 661.448 309.935 659.738C309.391 658.023 308.715 656.338 307.965 654.687C306.478 651.383 304.745 648.162 302.874 645.068L302.865 645.054C302.688 644.76 302.78 644.38 303.073 644.201C303.367 644.024 303.746 644.118 303.923 644.41L303.928 644.417Z" fill="#4D5578"/>
<path d="M315.306 646.702C316.368 647.84 317.135 649.107 317.7 650.505C318.271 651.891 318.555 653.397 318.575 654.903C318.578 655.204 318.338 655.45 318.037 655.455C317.737 655.459 317.492 655.218 317.486 654.917V654.915V654.903C317.474 653.54 317.227 652.174 316.711 650.901C316.216 649.636 315.463 648.408 314.573 647.443L314.543 647.41C314.348 647.199 314.361 646.868 314.571 646.673C314.785 646.48 315.112 646.493 315.306 646.702Z" fill="#4D5578"/>
<path d="M320.737 644.231C321.283 644.826 321.698 645.42 322.089 646.068C322.474 646.711 322.801 647.385 323.064 648.086C323.606 649.48 323.859 650.983 323.85 652.471C323.848 652.705 323.657 652.894 323.424 652.893C323.196 652.891 323.011 652.708 323.004 652.482V652.471C322.963 651.093 322.682 649.723 322.138 648.457C321.875 647.822 321.551 647.211 321.179 646.636C320.813 646.066 320.373 645.498 319.933 645.051L319.908 645.026C319.686 644.799 319.687 644.435 319.914 644.212C320.14 643.989 320.504 643.99 320.726 644.217C320.728 644.221 320.733 644.228 320.737 644.231Z" fill="#4D5578"/>
<path d="M327.398 642.118C327.955 642.693 328.387 643.277 328.796 643.914C329.198 644.546 329.546 645.215 329.831 645.912C330.416 647.3 330.716 648.813 330.748 650.33C330.755 650.682 330.478 650.972 330.126 650.979C329.774 650.986 329.485 650.709 329.478 650.356C329.478 650.353 329.478 650.349 329.478 650.346V650.33C329.479 648.979 329.246 647.618 328.744 646.348C328.266 645.084 327.525 643.851 326.647 642.881L326.619 642.851C326.421 642.633 326.437 642.295 326.656 642.097C326.87 641.9 327.198 641.913 327.398 642.118Z" fill="#4D5578"/>
<path d="M330.609 633.147L343.48 628.947L352.572 649.604L338.752 654.903L330.609 633.147Z" fill="#EFEEE5"/>
<path d="M372.27 612.9C372.27 612.9 479.58 546.69 514.573 554.481C549.566 562.27 537.124 602.775 418.927 633.933L386.621 642.5L372.27 612.9Z" fill="#989595"/>
<path d="M380.735 602.559L431.143 623.671L423.435 643.383L366.254 624.786L380.735 602.559Z" fill="#FFA49C"/>
<path d="M427.53 620.052L418.237 643.383L445.606 652.742C451.509 654.76 464.308 654.967 466.292 649.045C468.136 643.536 459.117 634.141 453.818 631.779L427.53 620.052Z" fill="#EFEEE5"/>
<path d="M456.837 633.547C454.964 636.64 453.231 639.861 451.745 643.166C450.996 644.817 450.321 646.5 449.775 648.217C449.24 649.926 448.777 651.689 448.754 653.434C448.754 653.705 448.537 653.924 448.268 653.924C448 653.924 447.782 653.701 447.779 653.434C447.786 651.507 448.252 649.682 448.782 647.905C449.323 646.128 449.992 644.404 450.733 642.716C452.208 639.334 453.908 636.079 455.782 632.895C455.955 632.6 456.335 632.503 456.63 632.676C456.925 632.849 457.023 633.23 456.849 633.525L456.848 633.529L456.837 633.547Z" fill="#4D5578"/>
<path d="M445.134 635.924C444.244 636.886 443.491 638.116 442.996 639.382C442.48 640.654 442.233 642.02 442.221 643.383V643.396C442.219 643.696 441.973 643.939 441.673 643.935C441.373 643.932 441.131 643.688 441.134 643.387C441.154 641.882 441.44 640.375 442.009 638.987C442.574 637.589 443.341 636.322 444.403 635.184C444.599 634.973 444.927 634.962 445.138 635.159C445.346 635.355 445.358 635.683 445.164 635.893L445.134 635.924Z" fill="#4D5578"/>
<path d="M439.779 633.531C439.338 633.979 438.899 634.547 438.534 635.117C438.159 635.692 437.836 636.302 437.574 636.938C437.03 638.203 436.749 639.573 436.709 640.952V640.962C436.701 641.196 436.507 641.38 436.272 641.373C436.044 641.366 435.862 641.178 435.86 640.952C435.85 639.463 436.104 637.961 436.647 636.566C436.908 635.865 437.237 635.191 437.622 634.548C438.012 633.901 438.426 633.306 438.972 632.711C439.187 632.478 439.551 632.462 439.784 632.678C440.018 632.894 440.034 633.257 439.818 633.492C439.815 633.497 439.809 633.501 439.806 633.504L439.779 633.531Z" fill="#4D5578"/>
<path d="M433.063 631.359C432.185 632.329 431.445 633.563 430.966 634.826C430.464 636.097 430.231 637.458 430.233 638.808V638.821C430.233 639.173 429.948 639.458 429.599 639.458C429.247 639.458 428.963 639.173 428.963 638.823C428.963 638.819 428.963 638.812 428.963 638.808C428.994 637.292 429.296 635.778 429.88 634.391C430.162 633.694 430.51 633.025 430.915 632.393C431.323 631.756 431.756 631.172 432.312 630.596C432.517 630.384 432.855 630.381 433.067 630.586C433.274 630.788 433.282 631.115 433.092 631.327L433.063 631.359Z" fill="#4D5578"/>
<path d="M429.101 621.627L416.232 617.426L407.14 638.083L420.96 643.383L429.101 621.627Z" fill="#EFEEE5"/>
<path d="M387.44 601.379C387.44 601.379 280.13 535.17 245.137 542.959C210.144 550.748 222.586 591.254 340.782 622.411L373.088 630.979L387.44 601.379Z" fill="#B1B0B0"/>
<path d="M497.278 370.925C486.623 394.906 467.912 427.872 467.912 427.872L458.22 392.703C458.22 392.703 468.434 378.072 479.63 365.256C481.386 356.445 486.232 342.686 497.39 321.176L499.872 315.222C499.872 315.222 503.423 296.317 504.27 295.138C505.116 293.958 504.861 301.287 504.861 301.287C504.861 301.287 506.434 294.397 507.835 292.648C508.951 291.255 508.51 300.726 508.51 300.726C512.19 290.857 511.687 291.116 512.19 290.857C513.496 290.185 511.119 302.019 511.119 302.019C511.119 302.019 513.508 294.454 514.925 294.22C516.342 293.986 513.374 308.84 513.374 308.84C513.374 308.84 516.123 306.628 519.308 307.187C520.119 307.329 520.616 308.306 520.605 308.916C516.466 309.598 511.195 318.357 511.194 318.36C511.194 318.36 508.648 337.508 503.494 354.746C503.245 355.627 502.955 356.565 502.623 357.556C501.059 362.432 499.28 367.055 497.278 370.925Z" fill="#FFA49C"/>
<path d="M172.983 472.004C172.983 472.004 161.266 469.186 162.425 468.282C162.872 467.933 162.425 468.282 172.911 469.087C172.911 469.087 164.147 465.505 165.877 465.077C168.052 464.539 174.951 466.008 174.951 466.008C174.951 466.008 168.207 463.157 169.631 462.884C171.055 462.612 189.672 467.335 189.672 467.335L196.109 467.583C220.284 466.489 234.782 467.871 243.503 469.981C259.819 465.196 277.365 462.065 277.365 462.065L305.143 485.663C305.143 485.663 267.416 488.803 241.213 488.401C236.865 488.592 231.927 488.265 226.846 487.633C225.81 487.518 224.838 487.387 223.937 487.242C206.158 484.678 187.748 478.938 187.748 478.938C187.748 478.938 177.594 480.044 175.236 483.52C174.679 483.272 174.002 482.409 174.214 481.614C175.048 478.485 178.207 476.917 178.207 476.917C178.207 476.917 163.506 473.368 164.313 472.179C165.126 470.992 172.983 472.004 172.983 472.004Z" fill="#FFA49C"/>
<path d="M457.435 383.091C457.435 383.091 426.518 421.628 388.03 431.458C347.24 441.877 312.311 446.963 275.678 461.486L284.047 499.181L324.89 492.41C324.89 492.41 321.23 536.69 321.124 567.545H451.987C451.987 567.545 444.375 522.39 440.471 491.867C438.723 478.209 443.35 464.509 452.981 454.685L490.66 416.243L457.435 383.091Z" fill="#FFE0E3"/>
<path d="M400.449 386.06C401.802 384.76 406.551 380.799 406.634 376.735C406.717 372.672 402.846 371.185 403.857 367.61C404.868 364.035 406.935 354.54 394.299 354.28C381.662 354.02 384.53 358.768 379.147 354.905C373.763 351.041 370.051 349.401 366.707 352.615C363.362 355.829 367.595 362.483 365.256 362.435C362.915 362.388 361.583 358.921 358.079 362.287C354.576 365.655 359.768 367.403 357.938 369.162C356.108 370.922 354.141 380.397 361.152 385.206C363.33 386.703 399.094 387.363 400.449 386.06Z" fill="#222947"/>
<path d="M403.714 389.007C403.32 387.535 402.138 386.367 400.427 386.087C400.715 383.155 400.816 379.911 400.597 376.291C400.454 373.923 400.067 371.539 399.178 369.341C396.408 362.487 390.666 357.836 383.03 357.648C372.507 357.39 365.924 362.942 362.388 373.891C361.275 377.339 360.86 381.279 360.975 385.232C359.595 385.317 358.516 385.99 357.849 386.945C356.141 389.397 358.038 392.798 361.01 393.081C361.295 393.108 361.602 393.138 361.917 393.168C363.012 398.414 364.959 403.061 367.372 405.79L364.123 437.259C363.703 441.332 365.918 445.282 369.673 446.898C378.749 450.807 386.445 448.876 391.12 446.733C394.053 445.388 395.844 442.372 395.604 439.149L393.159 406.321C393.159 406.321 396.82 402.362 399.046 393.924L399.827 393.883C402.399 393.745 404.38 391.501 403.714 389.007Z" fill="#FFA49C"/>
<path d="M367.371 405.789C374.242 411.684 381.47 414.74 393.159 406.321C393.159 406.321 381.444 420.124 366.521 414.036L367.371 405.789Z" fill="#EE7C78"/>
<path d="M400.612 391.889C400.829 391.189 401.184 390.637 401.292 390.076C401.389 389.809 401.384 389.575 401.31 389.345C401.241 389.098 400.993 388.889 400.744 388.609C401.103 388.6 401.511 388.683 401.801 389.034C402.098 389.384 402.099 389.883 402.023 390.262C401.767 391.014 401.299 391.593 400.612 391.889Z" fill="#EE7C78"/>
<path d="M360.661 390.806C359.99 390.475 359.551 389.875 359.332 389.11C359.276 388.728 359.302 388.229 359.615 387.894C359.922 387.558 360.336 387.498 360.693 387.524C360.429 387.79 360.172 387.986 360.09 388.23C360.005 388.457 359.988 388.689 360.071 388.961C360.152 389.526 360.479 390.098 360.661 390.806Z" fill="#EE7C78"/>
<path d="M370.267 358.542C363.615 362.72 356.858 372.525 358.91 379.295C359.777 380.76 360.548 382.652 360.903 385.216C360.903 385.216 361.578 374.875 364.775 372.654C367.871 370.504 368.975 367.922 370.505 363.465C370.505 363.465 377.966 360.738 383.786 366.814C392.27 375.67 398.869 371.729 398.869 371.729C398.869 371.729 396.466 383.93 400.447 386.062C406.74 355.126 380.028 352.411 370.267 358.542Z" fill="#222947"/>
<path d="M394.552 392.418C394.6 393.892 392.822 395.145 390.582 395.217C388.343 395.288 386.49 394.152 386.442 392.678C386.395 391.203 388.172 389.95 390.412 389.878C392.651 389.805 394.504 390.943 394.552 392.418Z" fill="#FF938F"/>
<path d="M373.484 392.68C373.279 394.14 371.314 395.071 369.095 394.757C366.876 394.444 365.245 393.007 365.45 391.547C365.655 390.087 367.62 389.156 369.839 389.469C372.056 389.781 373.689 391.219 373.484 392.68Z" fill="#FF938F"/>
<path d="M378.883 385.43C378.806 389.227 375.669 392.241 371.88 392.163C368.09 392.085 365.081 388.943 365.159 385.147C365.237 381.351 368.373 378.337 372.162 378.415C375.952 378.493 378.961 381.634 378.883 385.43Z" stroke="#222947" stroke-width="0.4277" stroke-miterlimit="10"/>
<path d="M390.815 392.155C394.411 390.953 396.353 387.059 395.153 383.457C393.953 379.855 390.065 377.91 386.469 379.112C382.873 380.315 380.932 384.209 382.132 387.811C383.332 391.413 387.22 393.358 390.815 392.155Z" stroke="#222947" stroke-width="0.4277" stroke-miterlimit="10"/>
<path d="M378.246 381.733C378.246 381.733 379.901 380.838 382.726 381.825" stroke="#222947" stroke-width="0.4277" stroke-miterlimit="10"/>
<path d="M373.158 386.152C373.141 387.016 372.609 387.705 371.969 387.692C371.331 387.678 370.828 386.968 370.846 386.105C370.863 385.241 371.395 384.553 372.035 384.565C372.674 384.579 373.176 385.289 373.158 386.152Z" fill="#222947"/>
<path d="M389.813 386.496C389.795 387.359 389.263 388.048 388.624 388.036C387.986 388.021 387.482 387.312 387.5 386.448C387.518 385.584 388.049 384.896 388.689 384.908C389.328 384.922 389.83 385.634 389.813 386.496Z" fill="#222947"/>
<path d="M376.1 395.04C377.443 396.382 378.961 397.38 380.581 397.288C381.388 397.251 382.182 396.955 382.989 396.605L384.175 395.959C384.572 395.724 384.947 395.455 385.383 395.232C385.136 395.642 384.828 396.005 384.54 396.401C384.206 396.745 383.848 397.083 383.463 397.389C382.655 397.959 381.696 398.392 380.627 398.461C379.56 398.495 378.496 398.113 377.717 397.46C376.933 396.817 376.379 395.959 376.1 395.04Z" fill="#EE7C78"/>
<path d="M379.636 390.963C380.292 390 381.156 389.363 382.074 388.811L382.053 390.067C381.258 389.443 380.859 388.651 380.61 387.869C380.353 387.087 380.276 386.269 380.352 385.461L381.601 387.393C382.012 387.984 382.452 388.54 382.908 388.823L383.861 389.418L382.885 390.08C382 390.681 381.058 391.2 379.91 391.391C379.758 391.416 379.615 391.313 379.59 391.163C379.58 391.092 379.597 391.019 379.636 390.963Z" fill="#EE7C78"/>
<path d="M168.971 482.423L198.503 442.491C198.992 441.829 199.925 441.689 200.586 442.179L200.699 442.264C201.36 442.754 201.499 443.689 201.01 444.351L171.478 484.283C170.988 484.945 170.056 485.085 169.395 484.593L169.28 484.508C168.619 484.019 168.48 483.085 168.971 482.423Z" fill="#989595"/>
<path d="M448.783 433.505H322.397V527.755H448.783V433.505Z" fill="#C6C0C2"/>
<path d="M390.938 468.854C393.892 471.813 393.892 476.609 390.938 479.568C387.984 482.527 383.196 482.527 380.242 479.568C377.288 476.609 377.288 471.813 380.242 468.854C383.196 465.895 387.984 465.895 390.938 468.854Z" fill="#EEEEEE"/>
<path d="M311.445 523.583H211.854V526.758H311.445V523.583Z" fill="#C6C0C2"/>
<path d="M778.741 527.753H35.5389V545.391H71.2088L79.0975 788.414H86.2601V545.391H184.326L195.72 788.414L203.814 788.468L200.271 545.391H565.551L573.44 788.414H580.972L580.514 545.391H689.359L700.909 788.414L708.847 788.468L705.305 545.391H778.741V527.753Z" stroke="#EFEEE5" stroke-width="1.0708" stroke-miterlimit="10"/>
<path fill-rule="evenodd" clip-rule="evenodd" d="M394.217 218.386C394.219 218.403 394.215 218.421 394.217 218.439C394.581 224.366 400.396 228.831 407.205 228.411C413.445 228.026 418.341 223.667 418.834 218.378L394.217 218.386Z" fill="white"/>
<path opacity="0.22" d="M358.724 218.396L135.191 523.918L664.864 523.842L455.555 218.366L358.724 218.396Z" fill="url(#paint0_linear_166_4636)"/>
<path fill-rule="evenodd" clip-rule="evenodd" d="M435.543 202.406C417.145 194.897 415.974 192.332 415.974 192.332C415.974 192.332 416.038 182.244 406.267 182.519C401.38 182.655 397.688 187.214 398.002 192.332C398.015 192.541 394.015 198.068 376.361 203.125C358.707 208.179 358.725 218.396 358.725 218.396L455.556 218.368C451.935 206.542 435.543 202.406 435.543 202.406Z" stroke="#7B95A3" stroke-width="1.0708" stroke-miterlimit="10"/>
<path d="M406 0L406 183" stroke="#7B95A3" stroke-width="1.0708" stroke-miterlimit="10"/>
<defs>
<linearGradient id="paint0_linear_166_4636" x1="400.028" y1="523.917" x2="400.028" y2="218.366" gradientUnits="userSpaceOnUse">
<stop offset="0.0034" stop-color="white" stop-opacity="0"/>
<stop offset="1" stop-color="#FDFDFD"/>
</linearGradient>
</defs>
</svg>
