<svg width="19" height="19" viewBox="0 0 19 19" fill="none" xmlns="http://www.w3.org/2000/svg">
<g clip-path="url(#clip0_745_3302)">
<path d="M9.49999 4.3418C6.63533 4.3418 4.30469 6.67244 4.30469 9.5371C4.30469 12.4018 6.63533 14.7324 9.49999 14.7324C12.3647 14.7324 14.6953 12.4018 14.6953 9.5371C14.6953 6.67244 12.3647 4.3418 9.49999 4.3418ZM9.49999 13.9902C7.04455 13.9902 5.04687 11.9926 5.04687 9.5371C5.04687 7.08165 7.04455 5.08398 9.49999 5.08398C11.9554 5.08398 13.9531 7.08165 13.9531 9.5371C13.9531 11.9926 11.9554 13.9902 9.49999 13.9902Z" fill="black"/>
<path d="M18.6289 12.7576V0.371093C18.6289 0.212364 18.528 0.0713195 18.3778 0.0200042C18.2278 -0.031311 18.0615 0.0185547 17.9644 0.143944C16.9311 1.47858 16.1998 3.03021 15.8242 4.67215C15.6151 4.40123 15.3878 4.14146 15.1416 3.89547C13.6348 2.38862 11.6312 1.55859 9.49999 1.55859C7.36881 1.55859 5.36534 2.38848 3.85836 3.89547C3.8082 3.94562 3.75949 3.99665 3.71093 4.04796V0.371093C3.71093 0.166122 3.54481 0 3.33984 0C3.13487 0 2.96875 0.166122 2.96875 0.371093V4.82421H2.22656V0.371093C2.22656 0.166122 2.06044 0 1.85547 0C1.6505 0 1.48437 0.166122 1.48437 0.371093V4.82421H0.742187V0.371093C0.742187 0.166122 0.576065 0 0.371093 0C0.166122 0 0 0.166122 0 0.371093V5.19531C0 5.78079 0.279625 6.3312 0.742187 6.67925V12.7576C0.516777 14.8271 0.371093 17.1667 0.371093 17.5156C0.371093 18.334 1.03703 19 1.85547 19C2.6739 19 3.33984 18.334 3.33984 17.5156C3.33984 17.2544 3.25823 15.8773 3.12255 14.333C3.34607 14.6292 3.59134 14.9119 3.85836 15.1789C5.36534 16.6857 7.36881 17.5156 9.49999 17.5156C11.6312 17.5156 13.6348 16.6857 15.1416 15.1787C15.5916 14.7289 15.9808 14.2345 16.3059 13.7058C16.1363 15.4884 16.0312 17.2195 16.0312 17.5156C16.0312 18.334 16.6972 19 17.5156 19C18.334 19 19 18.334 19 17.5156C19 17.1667 18.8543 14.8271 18.6289 12.7576ZM17.1445 10.2051H17.8867V10.9473H17.1445V10.2051ZM16.4052 5.57655C16.628 4.15291 17.1347 2.78421 17.8867 1.5599V9.46288H16.9272L16.4025 8.93828L16.4052 5.57655ZM1.48437 10.2051H2.22656V10.9473H1.48437V10.2051ZM2.90453 5.5664C2.81712 5.8124 2.64419 6.0249 2.41182 6.15943C2.29715 6.22567 2.22656 6.34816 2.22656 6.48051V9.46288H1.48437V6.48065C1.48437 6.34816 1.41378 6.22567 1.29912 6.15943C1.06675 6.0249 0.893958 5.8124 0.806403 5.5664H2.90453ZM1.85547 18.2578C1.44625 18.2578 1.11328 17.9248 1.11328 17.5156C1.11328 17.2328 1.48437 12.7913 1.48437 12.7778V11.6894H2.22656V12.7778C2.22656 12.7913 2.59765 17.2328 2.59765 17.5156C2.59765 17.925 2.26468 18.2578 1.85547 18.2578ZM9.49999 16.7734C6.62416 16.7734 4.13494 15.0871 2.96875 12.6515V6.67925C3.42986 6.33236 3.7089 5.78427 3.71079 5.20096C5.03194 3.44131 7.13514 2.30078 9.49999 2.30078C12.102 2.30078 14.3874 3.68136 15.6629 5.74832L15.6601 9.0915C15.6601 9.19007 15.6991 9.28458 15.7689 9.35431L16.4023 9.98777V11.7106C15.4773 14.642 12.7331 16.7734 9.49999 16.7734ZM17.5156 18.2578C17.1064 18.2578 16.7734 17.9248 16.7734 17.5156C16.7734 17.2328 17.1445 12.7913 17.1445 12.7778V11.6894H17.8867V12.7778C17.8867 12.7913 18.2578 17.2328 18.2578 17.5156C18.2578 17.925 17.9248 18.2578 17.5156 18.2578Z" fill="black"/>
<path d="M9.54797 12.5054C9.44882 12.5069 9.35605 12.5469 9.28705 12.6182C9.21805 12.6895 9.18094 12.7829 9.18268 12.882C9.18427 12.9803 9.22355 13.0721 9.29328 13.1411C9.36315 13.2096 9.45549 13.2476 9.55348 13.2476H9.55942C9.76381 13.2441 9.92791 13.0752 9.92457 12.8706C9.92312 12.7726 9.88369 12.6805 9.81397 12.6118C9.74279 12.5417 9.64669 12.504 9.54797 12.5054Z" fill="black"/>
<path d="M12.4688 9.53711C12.4692 10.672 11.8368 11.6916 10.8186 12.1978C10.7299 12.242 10.6633 12.3181 10.6319 12.4119C10.6003 12.5059 10.6071 12.6065 10.6512 12.6952C10.7142 12.8224 10.8419 12.9014 10.9837 12.9014C11.0412 12.9014 11.0969 12.8884 11.1485 12.8625C11.7582 12.5601 12.2732 12.0955 12.638 11.5188C13.0128 10.9265 13.211 10.2415 13.211 9.53711C13.211 9.33272 13.0444 9.16602 12.8399 9.16602C12.6355 9.16602 12.4688 9.33272 12.4688 9.53711Z" fill="black"/>
</g>
<defs>
<clipPath id="clip0_745_3302">
<rect width="19" height="19" fill="white"/>
</clipPath>
</defs>
</svg>
